<?xml version="1.0" encoding="UTF-8"?>
<svg width="52px" height="66px" viewBox="0 0 52 66" version="1.1" xmlns="http://www.w3.org/2000/svg" xmlns:xlink="http://www.w3.org/1999/xlink">
    <!-- Generator: Sketch 53 (72520) - https://sketchapp.com -->
    <title>Clipped</title>
    <desc>Created with Sketch.</desc>
    <defs>
        <rect id="path-1" x="0.337662338" y="0.34375" width="51.2368831" height="65.3125"></rect>
    </defs>
    <g id="z" stroke="none" stroke-width="1" fill="none" fill-rule="evenodd">
        <g id="Homme-Page" transform="translate(-687.000000, -2031.000000)">
            <g id="Group-3" transform="translate(151.000000, 2011.000000)">
                <g id="Rectangle-Copy-3" transform="translate(429.000000, 0.000000)">
                    <g id="noun_Document_42808" transform="translate(107.000000, 20.000000)">
                        <g id="Clipped">
                            <mask id="mask-2" fill="white">
                                <use xlink:href="#path-1"></use>
                            </mask>
                            <g id="b"></g>
                            <path d="M42.221974,24.2935 C42.221974,23.63075 41.6945455,23.0938125 41.0435325,23.0938125 L10.8693506,23.0938125 C10.2183377,23.0938125 9.69090909,23.63075 9.69090909,24.2935 C9.69090909,24.9555625 10.2183377,25.4925 10.8693506,25.4925 L41.0435325,25.4925 C41.6945455,25.4925 42.221974,24.9555625 42.221974,24.2935 L42.221974,24.2935 Z M42.221974,33.0006875 C42.221974,32.3379375 41.6945455,31.801 41.0435325,31.801 L10.8693506,31.801 C10.2183377,31.801 9.69090909,32.3379375 9.69090909,33.0006875 C9.69090909,33.66275 10.2183377,34.1996875 10.8693506,34.1996875 L41.0435325,34.1996875 C41.6945455,34.1996875 42.221974,33.66275 42.221974,33.0006875 L42.221974,33.0006875 Z M42.221974,41.7065 C42.221974,41.04375 41.6945455,40.5068125 41.0435325,40.5068125 L10.8693506,40.5068125 C10.2183377,40.5068125 9.69090909,41.04375 9.69090909,41.7065 C9.69090909,42.3685625 10.2183377,42.9061875 10.8693506,42.9061875 L41.0435325,42.9061875 C41.6945455,42.9061875 42.221974,42.3685625 42.221974,41.7065 L42.221974,41.7065 Z M42.221974,50.4136875 C42.221974,49.7509375 41.6945455,49.214 41.0435325,49.214 L10.8693506,49.214 C10.2183377,49.214 9.69090909,49.7509375 9.69090909,50.4136875 C9.69090909,51.07575 10.2183377,51.6126875 10.8693506,51.6126875 L41.0435325,51.6126875 C41.6945455,51.6126875 42.221974,51.07575 42.221974,50.4136875 L42.221974,50.4136875 Z M49.2183377,59.522375 C49.2183377,63.034125 46.178026,63.25 45.5648312,63.2575625 L6.34467532,63.2575625 C2.9092987,63.2575625 2.7012987,60.1418125 2.69454545,59.522375 L2.69454545,6.477625 C2.69454545,2.963125 5.74025974,2.7493125 6.34467532,2.7424375 L32.839013,2.7424375 L32.8531948,2.756875 L32.8531948,13.281125 C32.8531948,13.60975 32.8977662,13.990625 32.9666494,14.3873125 L10.8693506,14.3873125 C10.2183377,14.3873125 9.69090909,14.92425 9.69090909,15.587 C9.69090909,16.2490625 10.2183377,16.786 10.8693506,16.786 L33.874961,16.786 C34.7515325,18.203625 36.2777662,19.393 38.8588571,19.393 L49.1298701,19.393 L49.2183377,19.4830625 L49.2183377,59.522375 Z M46.7831169,16.995 L38.8588571,16.995 C35.4241558,16.995 35.2161558,13.8964375 35.2094026,13.2818125 L35.2094026,5.165875 L46.7831169,16.995 Z M51.5745455,59.522375 L51.5745455,18.49375 L35.2094026,1.7661875 L35.2094026,1.687125 L35.1330909,1.687125 L33.8182338,0.34375 L6.34467532,0.34375 C4.26737662,0.34375 0.338337662,1.62525 0.338337662,6.477625 L0.338337662,59.522375 C0.338337662,61.644 1.59376623,65.65625 6.34467532,65.65625 L45.5688831,65.65625 C47.6461818,65.65625 51.5745455,64.3740625 51.5745455,59.522375 L51.5745455,59.522375 Z" id="Shape" fill="#000000" fill-rule="nonzero" mask="url(#mask-2)"></path>
                        </g>
                    </g>
                </g>
            </g>
        </g>
    </g>
</svg>