<?xml version="1.0" encoding="UTF-8"?>
<svg width="26px" height="38px" viewBox="0 0 26 38" version="1.1" xmlns="http://www.w3.org/2000/svg" xmlns:xlink="http://www.w3.org/1999/xlink">
    <!-- Generator: Sketch 53 (72520) - https://sketchapp.com -->
    <title>placeholder (1)</title>
    <desc>Created with Sketch.</desc>
    <g id="z" stroke="none" stroke-width="1" fill="none" fill-rule="evenodd">
        <g id="Contacte" transform="translate(-148.000000, -1410.000000)" fill="#000000" fill-rule="nonzero">
            <g id="placeholder-(1)" transform="translate(148.000000, 1410.000000)">
                <path d="M13,0 C5.8318,0 0,5.99301562 0,13.359375 C0,15.8482266 0.670872222,18.2771094 1.94053889,20.3843281 L12.2600111,37.4737148 C12.4576833,37.8010937 12.8059389,38 13.1804833,38 C13.1833722,38 13.1861889,38 13.1890778,38 C13.5668722,37.996957 13.91585,37.7918906 14.1099111,37.4587969 L24.16635,20.2038281 C25.3659611,18.1411406 26,15.7743789 26,13.359375 C26,5.99301562 20.1682,0 13,0 Z M22.3069889,19.0607109 L13.1640889,34.7481797 L3.78206111,19.2112266 C2.72523333,17.4572891 2.15222222,15.4337891 2.15222222,13.359375 C2.15222222,7.22074219 7.0265,2.21171875 13,2.21171875 C18.9735,2.21171875 23.8405556,7.22074219 23.8405556,13.359375 C23.8405556,15.3722617 23.3053167,17.3440313 22.3069889,19.0607109 Z" id="Shape"></path>
                <path d="M13.5,7 C9.9159,7 7,9.9159 7,13.5 C7,17.0612056 9.86845,20 13.5,20 C17.1763278,20 20,17.0220611 20,13.5 C20,9.9159 17.0841,7 13.5,7 Z M13.5,17.8477778 C11.0981056,17.8477778 9.15222222,15.8953944 9.15222222,13.5 C9.15222222,11.1106 11.1106,9.15222222 13.5,9.15222222 C15.8894,9.15222222 17.8405556,11.1106 17.8405556,13.5 C17.8405556,15.8604389 15.9399556,17.8477778 13.5,17.8477778 Z" id="Shape"></path>
            </g>
        </g>
    </g>
</svg>