<?xml version="1.0" encoding="UTF-8"?>
<svg width="54px" height="66px" viewBox="0 0 54 66" version="1.1" xmlns="http://www.w3.org/2000/svg" xmlns:xlink="http://www.w3.org/1999/xlink">
    <!-- Generator: Sketch 53 (72520) - https://sketchapp.com -->
    <title>Group</title>
    <desc>Created with Sketch.</desc>
    <g id="z" stroke="none" stroke-width="1" fill="none" fill-rule="evenodd">
        <g id="Homme-Page" transform="translate(-1131.000000, -2031.000000)" fill="#000000" fill-rule="nonzero">
            <g id="Group-3" transform="translate(151.000000, 2011.000000)">
                <g id="Rectangle-Copy-4" transform="translate(874.000000, 0.000000)">
                    <g id="noun_Finance-Project_1666130" transform="translate(106.000000, 20.000000)">
                        <g id="Group">
                            <path d="M5.25565385,0.7734375 L5.25565385,3.3845625 L1.17346154,3.3845625 C0.743538462,3.3845625 0.394615385,3.7310625 0.394615385,4.158 L0.394615385,65.2265625 C0.394615385,65.6535 0.743538462,66 1.17346154,66 L47.9717308,66 C48.4016538,66 48.7505769,65.6535 48.7505769,65.2265625 L48.7505769,62.6071875 L52.8265385,62.6071875 C53.2564615,62.6071875 53.6053846,62.2606875 53.6053846,61.83375 L53.6053846,0.7734375 C53.6053846,0.3465 53.2564615,0 52.8265385,0 L6.03346154,0 C5.60353846,0 5.25565385,0.3465 5.25565385,0.7734375 Z M47.1928846,64.453125 L1.95230769,64.453125 L1.95230769,4.9314375 L31.3854231,4.9314375 L31.3854231,13.8321563 C31.3854231,17.5797187 34.4561538,20.629125 38.2309615,20.629125 L47.1939231,20.629125 L47.1939231,64.453125 L47.1928846,64.453125 Z M32.9431154,13.8321563 L32.9431154,6.02559375 C33.6970385,6.77428125 45.2416154,18.2386875 46.0921154,19.08225 L38.2309615,19.08225 C35.3149615,19.08225 32.9431154,16.726875 32.9431154,13.8321563 Z M6.81334615,1.546875 L52.0487308,1.546875 L52.0487308,61.0603125 L48.7568077,61.0603125 L48.7568077,23.656875 L49.4889231,23.656875 C49.9188462,23.656875 50.2677692,23.310375 50.2677692,22.8834375 C50.2677692,22.4565 49.9188462,22.11 49.4889231,22.11 L48.7557692,22.11 L48.7557692,19.8515625 C48.7557692,19.7082188 48.6467308,19.4235938 48.5273077,19.305 L47.3434615,18.1304063 L49.4878846,18.1304063 C49.9178077,18.1304063 50.2667308,17.7839063 50.2667308,17.3569688 C50.2667308,16.9300312 49.9178077,16.5835313 49.4878846,16.5835313 L45.7857692,16.5835313 L41.7741923,12.6029063 L49.4868462,12.6029063 C49.9167692,12.6029063 50.2656923,12.2564062 50.2656923,11.8294688 C50.2656923,11.4025312 49.9167692,11.0560313 49.4868462,11.0560313 L40.2154615,11.0560313 L36.2038846,7.07540625 L49.4868462,7.07540625 C49.9167692,7.07540625 50.2656923,6.72890625 50.2656923,6.30196875 C50.2656923,5.87503125 49.9167692,5.52853125 49.4868462,5.52853125 L34.6451538,5.52853125 C34.1238462,5.01084375 33.3169615,4.2095625 32.7136154,3.6114375 C32.5983462,3.498 32.4197308,3.41034375 32.2213846,3.394875 C32.2016538,3.3928125 32.1819231,3.3825 32.1611538,3.3825 L6.81334615,3.3825 L6.81334615,1.546875 Z" id="Shape"></path>
                            <path d="M18.7608462,25.9184063 C18.5552308,25.9410938 18.3672692,26.0431875 18.2385,26.2030313 L10.3420385,35.9854688 C10.0575,36.3391875 10.1385,36.8579063 10.5123462,37.1095313 C12.8125385,38.6584688 15.4969615,39.47625 18.2748462,39.47625 C22.518,39.47625 26.4755769,37.5880313 29.133,34.2962813 C31.1798077,31.7614688 32.2639615,28.5645938 32.1881538,25.2965625 C32.1777692,24.8459063 31.7810769,24.4952813 31.3241538,24.5447813 L18.7608462,25.9184063 Z M27.918,33.3279375 C25.5565385,36.2515313 22.0423846,37.929375 18.2748462,37.929375 C16.0930385,37.929375 13.9756154,37.360125 12.1032692,36.2762813 L19.2530769,27.4199063 L30.6221538,26.1762188 C30.5016923,28.78425 29.5577308,31.296375 27.918,33.3279375 Z" id="Shape"></path>
                            <path d="M19.197,24.6819375 C19.2250385,24.6819375 19.2541154,24.6809062 19.2821538,24.6778125 L31.1912308,23.3908125 C31.6398462,23.3423437 31.9555385,22.9246875 31.8724615,22.4781562 C31.2639231,19.276125 29.5099615,16.3824375 26.9293846,14.33025 C24.4142308,12.3275625 21.3964615,11.2560938 17.8667308,11.2952813 C17.4098077,11.3055938 17.0588077,11.7015938 17.1107308,12.1532813 L18.4243846,23.9940937 C18.468,24.3880312 18.8055,24.6819375 19.197,24.6819375 Z M25.9563462,15.5357813 C28.0228846,17.1816562 29.4933462,19.4339062 30.1558846,21.9460312 L19.8865385,23.0556562 L18.7546154,12.8504063 C21.4047692,12.964875 23.8846154,13.8878438 25.9563462,15.5357813 Z" id="Shape"></path>
                            <path d="M9.25165385,35.0975625 L17.1470769,25.315125 C17.2758462,25.1552813 17.3360769,24.9510938 17.3132308,24.7479375 L15.9476538,12.2852812 C15.8988462,11.8356562 15.4751538,11.52525 15.0255,11.6098125 C11.7896538,12.2316562 8.87573077,13.9744687 6.82373077,16.5165 C2.32303846,22.0924688 2.88796154,30.2888438 8.10934615,35.1769688 C8.44373077,35.4884063 8.97023077,35.446125 9.25165385,35.0975625 Z M8.03873077,17.4838125 C9.68469231,15.4460625 11.9526923,13.9868438 14.4948462,13.3155 L15.7306154,24.5963438 L8.58184615,33.4527188 C4.50796154,29.0678438 4.22030769,22.2141563 8.03873077,17.4838125 Z" id="Shape"></path>
                            <path d="M27.5296154,43.1175937 C27.5296154,43.5445312 27.8785385,43.8910312 28.3084615,43.8910312 L42.9871154,43.8910312 C43.4170385,43.8910312 43.7659615,43.5445312 43.7659615,43.1175937 C43.7659615,42.6906562 43.4170385,42.3441562 42.9871154,42.3441562 L28.3084615,42.3441562 C27.8785385,42.3441562 27.5296154,42.6906562 27.5296154,43.1175937 Z" id="Path"></path>
                            <path d="M22.8191538,42.3441562 L6.15911538,42.3441562 C5.72919231,42.3441562 5.38026923,42.6906562 5.38026923,43.1175937 C5.38026923,43.5445312 5.72919231,43.8910312 6.15911538,43.8910312 L22.8191538,43.8910312 C23.2490769,43.8910312 23.598,43.5445312 23.598,43.1175937 C23.598,42.6906562 23.2490769,42.3441562 22.8191538,42.3441562 Z" id="Path"></path>
                            <path d="M42.9871154,47.8716563 L28.3084615,47.8716563 C27.8785385,47.8716563 27.5296154,48.2181562 27.5296154,48.6450938 C27.5296154,49.0720313 27.8785385,49.4185313 28.3084615,49.4185313 L42.9871154,49.4185313 C43.4170385,49.4185313 43.7659615,49.0720313 43.7659615,48.6450938 C43.7659615,48.2181562 43.4170385,47.8716563 42.9871154,47.8716563 Z" id="Path"></path>
                            <path d="M22.8191538,47.8716563 L6.15911538,47.8716563 C5.72919231,47.8716563 5.38026923,48.2181562 5.38026923,48.6450938 C5.38026923,49.0720313 5.72919231,49.4185313 6.15911538,49.4185313 L22.8191538,49.4185313 C23.2490769,49.4185313 23.598,49.0720313 23.598,48.6450938 C23.598,48.2181562 23.2490769,47.8716563 22.8191538,47.8716563 Z" id="Path"></path>
                            <path d="M42.9871154,53.3991562 L28.3084615,53.3991562 C27.8785385,53.3991562 27.5296154,53.7456562 27.5296154,54.1725937 C27.5296154,54.5995312 27.8785385,54.9460312 28.3084615,54.9460312 L42.9871154,54.9460312 C43.4170385,54.9460312 43.7659615,54.5995312 43.7659615,54.1725937 C43.7659615,53.7456562 43.4170385,53.3991562 42.9871154,53.3991562 Z" id="Path"></path>
                            <path d="M22.8191538,53.3991562 L6.15911538,53.3991562 C5.72919231,53.3991562 5.38026923,53.7456562 5.38026923,54.1725937 C5.38026923,54.5995312 5.72919231,54.9460312 6.15911538,54.9460312 L22.8191538,54.9460312 C23.2490769,54.9460312 23.598,54.5995312 23.598,54.1725937 C23.598,53.7456562 23.2490769,53.3991562 22.8191538,53.3991562 Z" id="Path"></path>
                            <path d="M42.9871154,58.925625 L28.3084615,58.925625 C27.8785385,58.925625 27.5296154,59.272125 27.5296154,59.6990625 C27.5296154,60.126 27.8785385,60.4725 28.3084615,60.4725 L42.9871154,60.4725 C43.4170385,60.4725 43.7659615,60.126 43.7659615,59.6990625 C43.7659615,59.272125 43.4170385,58.925625 42.9871154,58.925625 Z" id="Path"></path>
                            <path d="M22.8191538,58.925625 L6.15911538,58.925625 C5.72919231,58.925625 5.38026923,59.272125 5.38026923,59.6990625 C5.38026923,60.126 5.72919231,60.4725 6.15911538,60.4725 L22.8191538,60.4725 C23.2490769,60.4725 23.598,60.126 23.598,59.6990625 C23.598,59.272125 23.2490769,58.925625 22.8191538,58.925625 Z" id="Path"></path>
                        </g>
                    </g>
                </g>
            </g>
        </g>
    </g>
</svg>