<?xml version="1.0" encoding="UTF-8"?>
<svg width="66px" height="67px" viewBox="0 0 66 67" version="1.1" xmlns="http://www.w3.org/2000/svg" xmlns:xlink="http://www.w3.org/1999/xlink">
    <!-- Generator: Sketch 53 (72520) - https://sketchapp.com -->
    <title>Group</title>
    <desc>Created with Sketch.</desc>
    <g id="z" stroke="none" stroke-width="1" fill="none" fill-rule="evenodd">
        <g id="Homme-Page" transform="translate(-251.000000, -2031.000000)" fill="#000000" fill-rule="nonzero">
            <g id="Group-3" transform="translate(151.000000, 2011.000000)">
                <g id="Group-2">
                    <g id="noun_rules_1028852" transform="translate(100.000000, 20.000000)">
                        <g id="Group">
                            <path d="M0.647494305,0.27898954 C0.334147793,0.332358506 -0.00206848605,0.734897586 3.60697674e-06,1.04910448 L3.60697674e-06,65.7387057 C3.60697674e-06,66.0780184 0.429080351,66.5088207 0.767445467,66.5088207 L14.4854682,66.5088207 L65.2325643,66.5088207 C65.5705457,66.5088207 66.0000061,66.0780184 66.0000061,65.7387057 L66.0000061,1.04910448 C66.0000061,0.709768736 65.5705457,0.27898954 65.2325643,0.27898954 C42.7286333,0.278758506 19.9206449,0.27898954 0.647494305,0.27898954 L0.647494305,0.27898954 Z M1.53488733,1.81921943 L2.30232942,1.81921943 L12.9505845,1.81921943 L13.7180263,1.81921943 L13.7180263,2.58933437 L13.7180263,64.1984759 L13.7180263,64.9685908 L12.9505845,64.9685908 L2.30232942,64.9685908 L1.53488733,64.9685908 L1.53488733,64.1984759 L1.53488733,2.58933437 L1.53488733,1.81921943 L1.53488733,1.81921943 Z M15.25291,1.81921943 L16.0203519,1.81921943 L19.1860496,1.81921943 L19.9534914,1.81921943 L19.9534914,2.58933437 L19.9534914,23.5990326 C19.9534914,23.8636672 20.167531,24.2089637 20.4091217,24.3210154 C20.6491775,24.4324048 21.0233821,24.3739223 21.2245287,24.2006849 L27.2920775,18.8580125 L27.7957496,18.4007568 L28.2994217,18.8580125 L34.3669705,24.2006849 C34.568117,24.3738915 34.9423217,24.4324048 35.1823775,24.3210154 C35.4235845,24.2091408 35.6411542,23.865631 35.6380077,23.5990326 L35.6380077,2.58933437 L35.6380077,1.81921943 L36.4054496,1.81921943 L63.6976806,1.81921943 L64.4651224,1.81921943 L64.4651224,2.58933437 L64.4651224,64.1984759 L64.4651224,64.9685908 L63.6976806,64.9685908 L16.0203519,64.9685908 L15.25291,64.9685908 L15.25291,64.1984759 L15.25291,2.58933437 L15.25291,1.81921943 L15.25291,1.81921943 Z M21.4883752,1.81921943 L22.255817,1.81921943 L33.3356821,1.81921943 L34.103124,1.81921943 L34.103124,2.58933437 L34.103124,20.2057137 L34.103124,21.9144062 L32.8320868,20.7832999 L28.2994217,16.7883286 C28.0609775,16.5803668 27.5305217,16.5803668 27.2920775,16.7883286 L22.7594124,20.7832999 L21.4883752,21.9144062 L21.4883752,20.2057137 L21.4883752,2.58933437 L21.4883752,1.81921943 L21.4883752,1.81921943 Z" id="Shape"></path>
                            <path d="M41.1394147,23.5027683 L41.1441728,23.5027683 L41.1490077,23.5027683 L56.3620845,23.5027683 L56.3669193,23.5027683 L56.3716775,23.5027683 C56.4716752,23.501228 56.5756635,23.521097 56.6683705,23.5586016 C56.7610775,23.5961062 56.8494868,23.6541729 56.9206287,23.7246538 C56.9917705,23.7951193 57.0509403,23.8833514 57.0894659,23.9759115 C57.1280682,24.0684639 57.1489426,24.172568 57.1489426,24.2728832 C57.1489426,24.3731984 57.1280682,24.4770638 57.0894659,24.5696162 C57.0509403,24.6621763 56.9917705,24.7503853 56.9206287,24.8208662 C56.8494868,24.8913317 56.7610775,24.9494138 56.6683705,24.9869261 C56.5756635,25.0244307 56.4716752,25.0440686 56.3716775,25.0427594 L56.3669193,25.0427594 L56.3620845,25.0427594 L41.1490077,25.0427594 L41.1441728,25.0427594 L41.1394147,25.0427594 C41.039417,25.0442997 40.9354287,25.0244307 40.8427217,24.9869261 C40.7503217,24.9495755 40.6621426,24.8917553 40.5911542,24.8215901 L40.5903868,24.820897 C40.5192449,24.7504315 40.4600752,24.6622071 40.4215496,24.569647 C40.3829473,24.4770946 40.3620728,24.3732292 40.3620728,24.272914 C40.3620728,24.1725989 40.3829473,24.0684947 40.4215496,23.9759423 C40.4599984,23.8835901 40.518938,23.7955737 40.5899263,23.7251698 L40.5906938,23.7247077 C40.6618356,23.6542422 40.7502449,23.5961601 40.8429519,23.5586555 C40.9356589,23.5211509 41.0396473,23.501513 41.1396449,23.5028222 L41.1394147,23.5027683 Z" id="Path"></path>
                            <path d="M41.1394147,16.0971505 L41.1441728,16.0971505 L41.1490077,16.0971505 L56.3620845,16.0971505 L56.3669193,16.0971505 L56.3716775,16.0971505 C56.4716752,16.0956102 56.5756635,16.1154792 56.6683705,16.1529838 C56.7610775,16.1904884 56.8494868,16.2485551 56.9206287,16.3190437 C56.9917705,16.3895092 57.0509403,16.4777336 57.0894659,16.570286 C57.1280682,16.6628461 57.1489426,16.7669502 57.1489426,16.8672654 C57.1489426,16.9675806 57.1280682,17.071446 57.0894659,17.1639984 C57.0509403,17.2565585 56.9917705,17.3447675 56.9206287,17.4152484 C56.8494868,17.4857139 56.7610775,17.543796 56.6683705,17.5813083 C56.5756635,17.6188129 56.4716752,17.6383738 56.3716775,17.6371416 L56.3669193,17.6371416 L56.3620845,17.6371416 L41.1490077,17.6371416 L41.1441728,17.6371416 L41.1394147,17.6371416 C41.039417,17.6386818 40.9354287,17.6188129 40.8427217,17.5813083 C40.7503217,17.5439577 40.6621426,17.4861375 40.5911542,17.4159723 L40.5903868,17.4152792 C40.5192449,17.3448137 40.4600752,17.2565893 40.4215496,17.1640292 C40.3829473,17.0714768 40.3620728,16.9676114 40.3620728,16.8672962 C40.3620728,16.766981 40.3829473,16.6628769 40.4215496,16.5703168 C40.4599984,16.4779723 40.518938,16.3899559 40.5899263,16.319552 L40.5906938,16.3190899 C40.6618356,16.2486244 40.7502449,16.1905346 40.8429519,16.15303 C40.9356589,16.1155254 41.0396473,16.0958875 41.1396449,16.0971967 L41.1394147,16.0971505 Z" id="Path"></path>
                            <path d="M22.7205798,31.0007999 L22.725338,31.0007999 L22.7301728,31.0007999 L56.3620845,31.0007999 L56.3669193,31.0007999 L56.3716775,31.0007999 C56.4716752,30.9992597 56.5756635,31.0191286 56.6683705,31.0566332 C56.7610775,31.0941378 56.8494868,31.1522045 56.9206287,31.2226931 C56.9917705,31.2931586 57.0509403,31.381383 57.0894659,31.4739354 C57.1280682,31.5664955 57.1489426,31.670592 57.1489426,31.7709379 C57.1489426,31.8712069 57.1280682,31.9750954 57.0894659,32.0676632 C57.0509403,32.160231 56.9917705,32.2484092 56.9206287,32.3188747 C56.8494868,32.3889552 56.7610775,32.4474839 56.6683705,32.4849885 C56.5756635,32.5227241 56.4716752,32.541977 56.3716775,32.5404368 L56.3669193,32.5404368 L56.3620845,32.5404368 L22.7301728,32.5404368 L22.725338,32.5404368 L22.7205798,32.5404368 C22.6205821,32.5404368 22.5165938,32.521954 22.4238868,32.4849885 C22.3314868,32.448023 22.2433077,32.3898023 22.1723193,32.3196448 L22.1715519,32.3189517 C22.10041,32.2488713 22.0412403,32.160231 22.0027147,32.0676632 C21.9641124,31.9750954 21.943238,31.8712839 21.943238,31.7709379 C21.943238,31.670669 21.9641124,31.5665263 22.0027147,31.4739662 C22.0411635,31.3816217 22.1001031,31.2936053 22.1710147,31.2232014 L22.1717821,31.2227393 C22.2428473,31.1522738 22.3313333,31.094184 22.4240403,31.0566794 C22.5167473,31.0191748 22.6207356,30.9996139 22.7207333,31.0008461 L22.7205798,31.0007999 Z" id="Path"></path>
                            <path d="M22.7205798,38.645369 L22.725338,38.645369 L22.7301728,38.645369 L56.3620845,38.645369 L56.3669193,38.645369 L56.3716775,38.645369 C56.4716752,38.645369 56.5756635,38.6638517 56.6683705,38.7008172 C56.7610775,38.7385529 56.8494868,38.7963885 56.9206287,38.866854 C56.9917705,38.9369345 57.0509403,39.0255747 57.0894659,39.1181425 C57.1280682,39.2106333 57.1489426,39.3145218 57.1489426,39.4148678 C57.1489426,39.5151368 57.1280682,39.6192563 57.0894659,39.7118241 C57.0509403,39.804392 56.9917705,39.8925701 56.9206287,39.9630356 C56.8494868,40.0338862 56.7610775,40.0916448 56.6683705,40.1291494 C56.5756635,40.1668851 56.4716752,40.1861379 56.3716775,40.1845977 L56.3669193,40.1845977 L56.3620845,40.1845977 L22.7301728,40.1845977 L22.725338,40.1845977 L22.7205798,40.1845977 C22.6205821,40.1845977 22.5165938,40.1661149 22.4238868,40.1291494 C22.3311798,40.0914138 22.2426938,40.0335782 22.1716287,39.9630356 L22.1708612,39.9625736 C22.0999496,39.8924931 22.04101,39.8041609 22.0025612,39.7118241 C21.9639589,39.6192563 21.9430845,39.5152138 21.9430845,39.4148678 C21.9430845,39.3145218 21.9639589,39.2107103 22.0025612,39.1181425 C22.04101,39.0258057 22.0999496,38.9377816 22.1708612,38.8673931 L22.1716287,38.866931 C22.2426938,38.7960805 22.3311798,38.7383218 22.4238868,38.7008172 C22.5165938,38.6630816 22.6205821,38.6438287 22.7205798,38.645369 Z" id="Path"></path>
                            <path d="M22.7165124,46.8145943 L22.7231891,46.8145943 L22.7301728,46.8145943 L56.3620845,46.8145943 L56.3690682,46.8145943 L56.3757449,46.8145943 C56.4760496,46.8145943 56.5804984,46.8315368 56.6735891,46.8692724 L56.6735891,46.8695034 C56.7666031,46.906469 56.8555496,46.9649207 56.9270752,47.0353092 L56.9270752,47.0355402 C56.998524,47.1063908 57.0580775,47.1940299 57.0968333,47.2868287 C57.1356659,47.3796276 57.1565403,47.4841322 57.1565403,47.5847862 C57.1565403,47.6853632 57.1356659,47.7898678 57.0968333,47.8826667 C57.0580775,47.9754655 56.998524,48.0634126 56.9270752,48.1339552 L56.9270752,48.1341862 C56.8554728,48.2050368 56.7664496,48.2629494 56.6732821,48.300223 C56.5801914,48.3371885 56.4757426,48.3564414 56.375438,48.3549011 L56.3687612,48.3546701 L56.3617775,48.3546701 L22.7298659,48.3546701 L22.7228821,48.3546701 L22.7162054,48.3549011 C22.6159007,48.3549011 22.5114519,48.3371885 22.4182845,48.300223 C22.325117,48.2632575 22.2360938,48.2047287 22.1645682,48.1341862 C22.0930426,48.0633356 22.0335659,47.9754655 21.99481,47.8826667 C21.9559775,47.7898678 21.9350263,47.6853632 21.9350263,47.5847092 C21.9350263,47.4841322 21.9559775,47.3796276 21.99481,47.2868287 C22.0335659,47.1940299 22.0930426,47.1058517 22.1645682,47.0353092 C22.236017,46.9652287 22.3250403,46.906777 22.4180542,46.8695034 L22.4180542,46.8692724 C22.5112217,46.8323069 22.6156705,46.813054 22.7159752,46.8145943 L22.7165124,46.8145943 Z" id="Path"></path>
                        </g>
                    </g>
                </g>
            </g>
        </g>
    </g>
</svg>