<?xml version="1.0" encoding="UTF-8"?>
<svg width="16px" height="16px" viewBox="0 0 16 16" version="1.1" xmlns="http://www.w3.org/2000/svg" xmlns:xlink="http://www.w3.org/1999/xlink">
    <!-- Generator: Sketch 53 (72520) - https://sketchapp.com -->
    <title>Shape</title>
    <desc>Created with Sketch.</desc>
    <g id="Symbols" stroke="none" stroke-width="1" fill="none" fill-rule="evenodd">
        <g id="Header" transform="translate(-1117.000000, -25.000000)" fill="#6B6B6B" fill-rule="nonzero">
            <g id="magnifying-glass-3">
                <g transform="translate(940.000000, 20.000000)">
                    <g id="Shape-3" transform="translate(177.000000, 5.000000)">
                        <g id="Shape-2">
                            <path d="M15.8616101,15.1840355 L11.9724994,11.2957871 C13.0157463,10.0966741 13.6473719,8.53215078 13.6473719,6.82217295 C13.6473719,3.05809313 10.5850521,0 6.82368596,0 C3.05877135,0 0,3.0616408 0,6.82217295 C0,10.5827051 3.0623198,13.6443459 6.82368596,13.6443459 C8.53404303,13.6443459 10.0989133,13.0128603 11.2982923,11.9698448 L15.187403,15.8580931 C15.2796629,15.9503326 15.4038589,16 15.5245065,16 C15.6451541,16 15.7693502,15.9538803 15.8616101,15.8580931 C16.04613,15.6736142 16.04613,15.3685144 15.8616101,15.1840355 Z M0.954535374,6.82217295 C0.954535374,3.58669623 3.58749168,0.957871397 6.8201375,0.957871397 C10.0563318,0.957871397 12.6857396,3.5902439 12.6857396,6.82217295 C12.6857396,10.054102 10.0563318,12.6900222 6.8201375,12.6900222 C3.58749168,12.6900222 0.954535374,10.0576497 0.954535374,6.82217295 Z" id="Shape"></path>
                        </g>
                    </g>
                </g>
            </g>
        </g>
    </g>
</svg>