<?xml version="1.0" encoding="UTF-8"?>
<svg width="18px" height="19px" viewBox="0 0 18 19" version="1.1" xmlns="http://www.w3.org/2000/svg" xmlns:xlink="http://www.w3.org/1999/xlink">
    <!-- Generator: Sketch 53 (72520) - https://sketchapp.com -->
    <title>Shape</title>
    <desc>Created with Sketch.</desc>
    <g id="z" stroke="none" stroke-width="1" fill="none" fill-rule="evenodd" stroke-linecap="round" stroke-linejoin="round">
        <g id="Homme-Page" transform="translate(-150.000000, -3259.000000)" stroke="#FFFFFF" stroke-width="2">
            <g id="Group-3-Copy" transform="translate(-5.000000, 2823.000000)">
                <g id="Group-6" transform="translate(156.000000, 230.000000)">
                    <g id="Group-4">
                        <g id="Group-7">
                            <g id="Group-9" transform="translate(0.000000, 202.545455)">
                                <g id="phone-call" transform="translate(0.000000, 5.267045)">
                                    <path d="M9.77241266,3.02272727 C11.2815324,3.31730463 12.4614873,4.49782613 12.7559233,6.00767045 L9.77241266,3.02272727 Z M9.77241266,0 C12.9293055,0.35087383 15.4225213,2.84214911 15.7771999,6.00011364 L9.77241266,0 Z M15.0218807,12.0304545 L15.0218807,14.2975 C15.0236073,14.7230585 14.8459276,15.1296254 14.5324927,15.4173183 C14.2190579,15.7050113 13.7989163,15.8471677 13.375285,15.8088636 C11.0510425,15.5561945 8.81844394,14.7615979 6.85688074,13.4889205 C5.03189985,12.3286948 3.48463464,10.7806867 2.32496585,8.95482955 C1.04845991,6.98340983 0.254064285,4.73887657 0.00613605997,2.40306818 C-0.0320277918,1.98054557 0.109064917,1.56142939 0.39494851,1.2481 C0.680832104,0.934770616 1.08518065,0.75608134 1.50922117,0.755681818 L3.77517861,0.755681818 C4.53341636,0.748215563 5.17969521,1.30428225 5.28581691,2.05545455 C5.3814577,2.78095931 5.55882661,3.49331066 5.81454032,4.17892045 C6.02205292,4.73122943 5.8893283,5.35385928 5.4746467,5.77340909 L4.51539138,6.733125 C5.59063009,8.62500906 7.15633017,10.1914609 9.04730627,11.2672159 L10.0065616,10.3075 C10.4259101,9.89261929 11.0482411,9.75983093 11.600285,9.96744318 C12.2855658,10.2232797 12.9975752,10.4007337 13.7227318,10.4964205 C14.4822525,10.6036217 15.0409072,11.2632808 15.0218807,12.0304545 L15.0218807,12.0304545 Z" id="Shape"></path>
                                </g>
                            </g>
                        </g>
                    </g>
                </g>
            </g>
        </g>
    </g>
</svg>