<?xml version="1.0" encoding="UTF-8"?>
<svg width="19px" height="14px" viewBox="0 0 19 14" version="1.1" xmlns="http://www.w3.org/2000/svg" xmlns:xlink="http://www.w3.org/1999/xlink">
    <!-- Generator: Sketch 53 (72520) - https://sketchapp.com -->
    <title>Shape</title>
    <desc>Created with Sketch.</desc>
    <g id="Symbols" stroke="none" stroke-width="1" fill="none" fill-rule="evenodd">
        <g id="Footer" transform="translate(-694.000000, -219.000000)" fill="#585858" fill-rule="nonzero">
            <g id="Group-3" transform="translate(-3.000000, 0.000000)">
                <g id="Social-Icon" transform="translate(697.000000, 215.000000)">
                    <path d="M17.9833226,6.8689657 C17.7629561,5.87706153 16.9799678,5.14526267 16.0373717,5.0360993 C13.8052789,4.77791928 11.5460583,4.77657158 9.29724291,4.77791928 C7.0480559,4.77657158 4.78846373,4.77791928 2.55637091,5.0360993 C1.61433224,5.14526267 0.831901301,5.87706153 0.611534857,6.8689657 C0.297893579,8.2815435 0.294363257,9.82350011 0.294363257,11.2778565 C0.294363257,12.7322129 0.294363257,14.273977 0.608004535,15.6863622 C0.827999365,16.6780739 1.61061611,17.4098727 2.5532122,17.5192286 C4.78511921,17.7776012 7.04452558,17.7789489 9.29371259,17.7776012 C11.5432712,17.7789489 13.8021202,17.7776012 16.0338414,17.5192286 C16.97588,17.4100653 17.7590542,16.6782664 17.9794206,15.6863622 C18.2932477,14.2737844 18.2943626,12.7320203 18.2943626,11.2778565 C18.2943626,9.82350011 18.2969639,8.2815435 17.9833226,6.8689657 Z M6.97150365,14.1727072 C6.97150365,12.1095774 6.97150365,10.0680107 6.97150365,8.00468826 C8.87917841,9.03606067 10.7742183,10.0605021 12.6939705,11.0982279 C10.7801641,12.1267124 8.88419518,13.1449929 6.97150365,14.1727072 Z" id="Shape"></path>
                </g>
            </g>
        </g>
    </g>
</svg>